<mxfile host="app.diagrams.net" agent="Mozilla/5.0 (Windows NT 10.0; Win64; x64) AppleWebKit/537.36 (KHTML, like Gecko) Chrome/135.0.0.0 Safari/537.36 Edg/135.0.0.0" version="26.2.14">
  <diagram name="Página-1" id="zqoaGMEUPhdVN5g2cK0H">
    <mxGraphModel dx="2769" dy="842" grid="0" gridSize="10" guides="1" tooltips="1" connect="1" arrows="1" fold="1" page="0" pageScale="1" pageWidth="850" pageHeight="1100" math="0" shadow="0">
      <root>
        <mxCell id="0" />
        <mxCell id="1" parent="0" />
        <mxCell id="4AYkk2JZDEN1AzWQcWQA-20" value="" style="rounded=0;whiteSpace=wrap;html=1;" parent="1" vertex="1">
          <mxGeometry x="329" y="111.5" width="152" height="279.5" as="geometry" />
        </mxCell>
        <mxCell id="4AYkk2JZDEN1AzWQcWQA-1" value="" style="rounded=1;whiteSpace=wrap;html=1;" parent="1" vertex="1">
          <mxGeometry x="-524.5" y="125.5" width="161" height="260" as="geometry" />
        </mxCell>
        <mxCell id="Mb1oC6YqtbpciYeHHtFN-1" value="" style="verticalLabelPosition=bottom;verticalAlign=top;html=1;shadow=0;dashed=0;strokeWidth=1;shape=mxgraph.android.phone2;strokeColor=#c0c0c0;fillColor=#000000;" parent="1" vertex="1">
          <mxGeometry x="-544" y="70.5" width="200" height="390" as="geometry" />
        </mxCell>
        <mxCell id="Mb1oC6YqtbpciYeHHtFN-2" value="" style="swimlane;container=1;shape=mxgraph.bootstrap.rrect;rSize=5;strokeColor=#999999;fillColor=#ffffff;fontStyle=0;childLayout=stackLayout;horizontal=1;startSize=0;horizontalStack=0;resizeParent=1;resizeParentMax=0;resizeLast=0;collapsible=0;marginBottom=0;whiteSpace=wrap;html=1;marginTop=10;marginBottom=10;" parent="1" vertex="1">
          <mxGeometry x="-507" y="187.5" width="126" height="175" as="geometry" />
        </mxCell>
        <mxCell id="Mb1oC6YqtbpciYeHHtFN-3" value="&lt;font style=&quot;font-size: 12px;&quot;&gt;Encontré a un animal perdido&lt;/font&gt;" style="text;align=left;verticalAlign=middle;spacingLeft=20;spacingRight=10;overflow=hidden;points=[[0,0.5],[1,0.5]];portConstraint=eastwest;rotatable=0;whiteSpace=wrap;html=1;fontColor=inherit;fontSize=14;fontStyle=0;" parent="Mb1oC6YqtbpciYeHHtFN-2" vertex="1">
          <mxGeometry y="10" width="126" height="35" as="geometry" />
        </mxCell>
        <mxCell id="Mb1oC6YqtbpciYeHHtFN-4" value="&lt;font style=&quot;font-size: 12px;&quot;&gt;Perdí a mi mascota&lt;/font&gt;" style="text;fillColor=#0085FC;align=left;verticalAlign=middle;spacingLeft=20;spacingRight=10;overflow=hidden;points=[[0,0.5],[1,0.5]];portConstraint=eastwest;rotatable=0;whiteSpace=wrap;html=1;fontColor=#ffffff;fontSize=14;fontStyle=0;" parent="Mb1oC6YqtbpciYeHHtFN-2" vertex="1">
          <mxGeometry y="45" width="126" height="34" as="geometry" />
        </mxCell>
        <mxCell id="Mb1oC6YqtbpciYeHHtFN-5" value="&lt;font style=&quot;font-size: 12px;&quot;&gt;Hay un animal en una emergencia&lt;/font&gt;" style="text;align=left;verticalAlign=middle;spacingLeft=20;spacingRight=10;overflow=hidden;points=[[0,0.5],[1,0.5]];portConstraint=eastwest;rotatable=0;whiteSpace=wrap;html=1;fontColor=inherit;fontSize=14;fontStyle=0;" parent="Mb1oC6YqtbpciYeHHtFN-2" vertex="1">
          <mxGeometry y="79" width="126" height="43" as="geometry" />
        </mxCell>
        <mxCell id="4AYkk2JZDEN1AzWQcWQA-4" value="&lt;span style=&quot;font-size: 12px;&quot;&gt;Denunciar maltrato&lt;/span&gt;" style="text;align=left;verticalAlign=middle;spacingLeft=20;spacingRight=10;overflow=hidden;points=[[0,0.5],[1,0.5]];portConstraint=eastwest;rotatable=0;whiteSpace=wrap;html=1;fontColor=inherit;fontSize=14;fontStyle=0;" parent="Mb1oC6YqtbpciYeHHtFN-2" vertex="1">
          <mxGeometry y="122" width="126" height="43" as="geometry" />
        </mxCell>
        <mxCell id="4AYkk2JZDEN1AzWQcWQA-3" value="Qué tipo de publicación desea realizar?" style="text;html=1;align=center;verticalAlign=middle;whiteSpace=wrap;rounded=0;" parent="1" vertex="1">
          <mxGeometry x="-515" y="136.5" width="142" height="30" as="geometry" />
        </mxCell>
        <mxCell id="4AYkk2JZDEN1AzWQcWQA-5" value="" style="verticalLabelPosition=bottom;verticalAlign=top;html=1;shadow=0;dashed=0;strokeWidth=1;shape=mxgraph.android.phone2;strokeColor=#c0c0c0;fillColor=#000000;" parent="1" vertex="1">
          <mxGeometry x="305" y="55" width="200" height="390" as="geometry" />
        </mxCell>
        <mxCell id="4AYkk2JZDEN1AzWQcWQA-6" value="&lt;font style=&quot;font-size: 7px;&quot;&gt;Seleccionar archivo&lt;/font&gt;" style="strokeWidth=1;shadow=0;dashed=0;align=center;html=1;shape=mxgraph.mockup.buttons.button;strokeColor=#666666;fontColor=#ffffff;mainText=;buttonStyle=round;fontSize=17;fontStyle=1;fillColor=#008cff;whiteSpace=wrap;" parent="1" vertex="1">
          <mxGeometry x="399.5" y="160.5" width="73.5" height="17" as="geometry" />
        </mxCell>
        <mxCell id="4AYkk2JZDEN1AzWQcWQA-8" value="" style="rounded=1;whiteSpace=wrap;html=1;" parent="1" vertex="1">
          <mxGeometry x="336.5" y="139" width="63" height="60" as="geometry" />
        </mxCell>
        <mxCell id="4AYkk2JZDEN1AzWQcWQA-9" value="Foto" style="text;html=1;align=center;verticalAlign=middle;whiteSpace=wrap;rounded=0;" parent="1" vertex="1">
          <mxGeometry x="338" y="154" width="60" height="30" as="geometry" />
        </mxCell>
        <mxCell id="4AYkk2JZDEN1AzWQcWQA-15" value="&lt;font size=&quot;1&quot;&gt;Especie&lt;/font&gt;" style="strokeWidth=1;shadow=0;dashed=0;align=center;html=1;shape=mxgraph.mockup.forms.comboBox;strokeColor=#999999;fillColor=#ddeeff;align=left;fillColor2=#aaddff;mainText=;fontColor=#666666;fontSize=17;spacingLeft=3;" parent="1" vertex="1">
          <mxGeometry x="379" y="203.57" width="91" height="15" as="geometry" />
        </mxCell>
        <mxCell id="4AYkk2JZDEN1AzWQcWQA-17" value="&lt;font style=&quot;font-size: 7px;&quot;&gt;Ingrese una imagen del animal&lt;/font&gt;" style="text;html=1;align=center;verticalAlign=middle;whiteSpace=wrap;rounded=0;" parent="1" vertex="1">
          <mxGeometry x="326" y="112.5" width="84" height="23" as="geometry" />
        </mxCell>
        <mxCell id="4AYkk2JZDEN1AzWQcWQA-18" value="&lt;span style=&quot;font-size: 10px;&quot;&gt;Especie:&lt;/span&gt;" style="text;html=1;align=center;verticalAlign=middle;whiteSpace=wrap;rounded=0;" parent="1" vertex="1">
          <mxGeometry x="340" y="204.63" width="28" height="15" as="geometry" />
        </mxCell>
        <mxCell id="4AYkk2JZDEN1AzWQcWQA-23" value="&lt;span style=&quot;font-size: 10px;&quot;&gt;Publicar&lt;/span&gt;" style="strokeWidth=1;shadow=0;dashed=0;align=center;html=1;shape=mxgraph.mockup.buttons.button;strokeColor=#666666;fontColor=#ffffff;mainText=;buttonStyle=round;fontSize=17;fontStyle=1;fillColor=#008cff;whiteSpace=wrap;" parent="1" vertex="1">
          <mxGeometry x="359.88" y="365" width="90.25" height="21" as="geometry" />
        </mxCell>
        <mxCell id="4AYkk2JZDEN1AzWQcWQA-24" value="&lt;font&gt;Tags:&lt;/font&gt;" style="text;html=1;align=center;verticalAlign=middle;whiteSpace=wrap;rounded=0;" parent="1" vertex="1">
          <mxGeometry x="333.5" y="228.94" width="34" height="10" as="geometry" />
        </mxCell>
        <mxCell id="4AYkk2JZDEN1AzWQcWQA-25" value="&lt;font size=&quot;1&quot;&gt;(Buscador)&lt;/font&gt;" style="rounded=0;whiteSpace=wrap;html=1;" parent="1" vertex="1">
          <mxGeometry x="378.5" y="226.44" width="91" height="15" as="geometry" />
        </mxCell>
        <mxCell id="4AYkk2JZDEN1AzWQcWQA-26" value="&lt;span style=&quot;font-size: 8px;&quot;&gt;Tag&lt;/span&gt;" style="rounded=1;whiteSpace=wrap;html=1;fillColor=#f5f5f5;strokeColor=#666666;fontColor=#333333;" parent="1" vertex="1">
          <mxGeometry x="336.5" y="251.94" width="39" height="15" as="geometry" />
        </mxCell>
        <mxCell id="4AYkk2JZDEN1AzWQcWQA-27" value="&lt;span style=&quot;font-size: 8px;&quot;&gt;Tag&lt;/span&gt;" style="rounded=1;whiteSpace=wrap;html=1;fillColor=#f5f5f5;strokeColor=#666666;fontColor=#333333;" parent="1" vertex="1">
          <mxGeometry x="385.5" y="251.94" width="39" height="15" as="geometry" />
        </mxCell>
        <mxCell id="4AYkk2JZDEN1AzWQcWQA-28" value="&lt;span style=&quot;font-size: 8px;&quot;&gt;Tag&lt;/span&gt;" style="rounded=1;whiteSpace=wrap;html=1;fillColor=#f5f5f5;strokeColor=#666666;fontColor=#333333;" parent="1" vertex="1">
          <mxGeometry x="431" y="252" width="39" height="15" as="geometry" />
        </mxCell>
        <mxCell id="4AYkk2JZDEN1AzWQcWQA-31" value="" style="shape=mxgraph.sysml.x;" parent="1" vertex="1">
          <mxGeometry x="455" y="115" width="18" height="18" as="geometry" />
        </mxCell>
        <mxCell id="4AYkk2JZDEN1AzWQcWQA-32" value="&lt;font style=&quot;font-size: 16px;&quot;&gt;Seleccion de publicacion&lt;/font&gt;" style="text;html=1;align=center;verticalAlign=middle;resizable=0;points=[];autosize=1;strokeColor=none;fillColor=none;" parent="1" vertex="1">
          <mxGeometry x="-541" y="25.5" width="194" height="31" as="geometry" />
        </mxCell>
        <mxCell id="4AYkk2JZDEN1AzWQcWQA-33" value="&lt;span style=&quot;font-size: 16px;&quot;&gt;Animal encontrado&lt;/span&gt;" style="text;html=1;align=center;verticalAlign=middle;resizable=0;points=[];autosize=1;strokeColor=none;fillColor=none;" parent="1" vertex="1">
          <mxGeometry x="325.5" y="10" width="151" height="31" as="geometry" />
        </mxCell>
        <mxCell id="4AYkk2JZDEN1AzWQcWQA-51" value="&lt;span style=&quot;font-size: 16px;&quot;&gt;Animal perdido&lt;/span&gt;" style="text;html=1;align=center;verticalAlign=middle;resizable=0;points=[];autosize=1;strokeColor=none;fillColor=none;" parent="1" vertex="1">
          <mxGeometry x="593.5" y="10" width="125" height="31" as="geometry" />
        </mxCell>
        <mxCell id="4AYkk2JZDEN1AzWQcWQA-93" value="&lt;span style=&quot;font-size: 16px;&quot;&gt;Situación de emergencia&lt;/span&gt;" style="text;html=1;align=center;verticalAlign=middle;resizable=0;points=[];autosize=1;strokeColor=none;fillColor=none;" parent="1" vertex="1">
          <mxGeometry x="792.5" y="10" width="194" height="31" as="geometry" />
        </mxCell>
        <mxCell id="4AYkk2JZDEN1AzWQcWQA-97" value="" style="shape=flexArrow;endArrow=classic;html=1;rounded=0;" parent="1" edge="1">
          <mxGeometry width="50" height="50" relative="1" as="geometry">
            <mxPoint x="134" y="235" as="sourcePoint" />
            <mxPoint x="251" y="235" as="targetPoint" />
          </mxGeometry>
        </mxCell>
        <mxCell id="4AYkk2JZDEN1AzWQcWQA-98" value="" style="rounded=1;whiteSpace=wrap;html=1;" parent="1" vertex="1">
          <mxGeometry x="-83" y="103" width="176" height="260" as="geometry" />
        </mxCell>
        <mxCell id="4AYkk2JZDEN1AzWQcWQA-99" value="" style="verticalLabelPosition=bottom;verticalAlign=top;html=1;shadow=0;dashed=0;strokeWidth=1;shape=mxgraph.android.phone2;strokeColor=#c0c0c0;fillColor=#000000;" parent="1" vertex="1">
          <mxGeometry x="-97" y="47.99999999999999" width="200" height="390" as="geometry" />
        </mxCell>
        <mxCell id="4AYkk2JZDEN1AzWQcWQA-106" value="&lt;span style=&quot;font-size: 16px;&quot;&gt;Selección de ubicación&lt;/span&gt;" style="text;html=1;align=center;verticalAlign=middle;resizable=0;points=[];autosize=1;strokeColor=none;fillColor=none;" parent="1" vertex="1">
          <mxGeometry x="-88" y="2.999999999999999" width="182" height="31" as="geometry" />
        </mxCell>
        <mxCell id="4AYkk2JZDEN1AzWQcWQA-108" value="&lt;font size=&quot;1&quot;&gt;¿Dónde desea colocar la publicación?&lt;/font&gt;" style="text;html=1;align=center;verticalAlign=middle;resizable=0;points=[];autosize=1;strokeColor=none;fillColor=none;" parent="1" vertex="1">
          <mxGeometry x="-91" y="110.87" width="188" height="26" as="geometry" />
        </mxCell>
        <mxCell id="4AYkk2JZDEN1AzWQcWQA-107" value="" style="verticalLabelPosition=bottom;verticalAlign=top;html=1;shadow=0;dashed=0;strokeWidth=1;shape=mxgraph.ios.iBgMap;strokeColor=#18211b;strokeColor2=#008cff;fillColor2=#96D1FF;" parent="1" vertex="1">
          <mxGeometry x="-58" y="145.37" width="126" height="164.5" as="geometry" />
        </mxCell>
        <mxCell id="zT-mEKw-d-SdC_awE3MW-3" value="" style="verticalLabelPosition=bottom;verticalAlign=top;html=1;shape=mxgraph.basic.heart;fillColor=#f8cecc;strokeColor=#b85450;" parent="1" vertex="1">
          <mxGeometry x="2" y="202.87" width="25" height="29" as="geometry" />
        </mxCell>
        <mxCell id="zT-mEKw-d-SdC_awE3MW-4" value="" style="verticalLabelPosition=bottom;verticalAlign=top;html=1;shape=mxgraph.basic.donut;dx=6.89;fillColor=#f8cecc;strokeColor=#b85450;" parent="1" vertex="1">
          <mxGeometry x="2" y="198.5" width="25" height="25" as="geometry" />
        </mxCell>
        <mxCell id="zT-mEKw-d-SdC_awE3MW-5" value="Continuar" style="strokeWidth=1;shadow=0;dashed=0;align=center;html=1;shape=mxgraph.mockup.buttons.button;strokeColor=#666666;fontColor=#ffffff;mainText=;buttonStyle=round;fontSize=17;fontStyle=1;fillColor=#008cff;whiteSpace=wrap;" parent="1" vertex="1">
          <mxGeometry x="-41.5" y="320.87" width="93" height="31" as="geometry" />
        </mxCell>
        <mxCell id="zT-mEKw-d-SdC_awE3MW-6" value="" style="shape=flexArrow;endArrow=classic;html=1;rounded=0;" parent="1" edge="1">
          <mxGeometry width="50" height="50" relative="1" as="geometry">
            <mxPoint x="-297" y="248" as="sourcePoint" />
            <mxPoint x="-151" y="248" as="targetPoint" />
          </mxGeometry>
        </mxCell>
        <mxCell id="zT-mEKw-d-SdC_awE3MW-10" value="" style="rounded=1;whiteSpace=wrap;html=1;" parent="1" vertex="1">
          <mxGeometry x="333.51" y="274.13" width="143" height="31.87" as="geometry" />
        </mxCell>
        <mxCell id="4AYkk2JZDEN1AzWQcWQA-53" value="&lt;span style=&quot;font-size: 8px;&quot;&gt;Razgos únicos:&lt;/span&gt;" style="text;html=1;align=center;verticalAlign=middle;whiteSpace=wrap;rounded=0;" parent="1" vertex="1">
          <mxGeometry x="333.51" y="274.13" width="66" height="10" as="geometry" />
        </mxCell>
        <mxCell id="zT-mEKw-d-SdC_awE3MW-11" value="" style="verticalLabelPosition=bottom;verticalAlign=top;html=1;shadow=0;dashed=0;strokeWidth=1;shape=mxgraph.ios.iBgMap;strokeColor=#18211b;strokeColor2=#008cff;fillColor2=#96D1FF;rotation=90;" parent="1" vertex="1">
          <mxGeometry x="381.25" y="267" width="47.5" height="140.13" as="geometry" />
        </mxCell>
        <mxCell id="zT-mEKw-d-SdC_awE3MW-12" value="" style="sketch=0;html=1;aspect=fixed;strokeColor=#b85450;shadow=0;fillColor=#FF0000;verticalAlign=top;labelPosition=center;verticalLabelPosition=bottom;shape=mxgraph.gcp2.maps_api;fillStyle=solid;" parent="1" vertex="1">
          <mxGeometry x="398" y="323" width="11.59" height="19" as="geometry" />
        </mxCell>
        <mxCell id="zT-mEKw-d-SdC_awE3MW-32" value="" style="rounded=0;whiteSpace=wrap;html=1;" parent="1" vertex="1">
          <mxGeometry x="580" y="115.5" width="152" height="317.5" as="geometry" />
        </mxCell>
        <mxCell id="zT-mEKw-d-SdC_awE3MW-33" value="" style="verticalLabelPosition=bottom;verticalAlign=top;html=1;shadow=0;dashed=0;strokeWidth=1;shape=mxgraph.android.phone2;strokeColor=#c0c0c0;fillColor=#000000;" parent="1" vertex="1">
          <mxGeometry x="556" y="59" width="200" height="424" as="geometry" />
        </mxCell>
        <mxCell id="zT-mEKw-d-SdC_awE3MW-34" value="&lt;font style=&quot;font-size: 7px;&quot;&gt;Seleccionar archivo&lt;/font&gt;" style="strokeWidth=1;shadow=0;dashed=0;align=center;html=1;shape=mxgraph.mockup.buttons.button;strokeColor=#666666;fontColor=#ffffff;mainText=;buttonStyle=round;fontSize=17;fontStyle=1;fillColor=#008cff;whiteSpace=wrap;" parent="1" vertex="1">
          <mxGeometry x="658.5" y="203.63" width="73.5" height="17" as="geometry" />
        </mxCell>
        <mxCell id="zT-mEKw-d-SdC_awE3MW-35" value="" style="rounded=1;whiteSpace=wrap;html=1;" parent="1" vertex="1">
          <mxGeometry x="584.5" y="186.63" width="63" height="60" as="geometry" />
        </mxCell>
        <mxCell id="zT-mEKw-d-SdC_awE3MW-36" value="Foto" style="text;html=1;align=center;verticalAlign=middle;whiteSpace=wrap;rounded=0;" parent="1" vertex="1">
          <mxGeometry x="586" y="198.5" width="60" height="30" as="geometry" />
        </mxCell>
        <mxCell id="zT-mEKw-d-SdC_awE3MW-37" value="&lt;font size=&quot;1&quot;&gt;Especie&lt;/font&gt;" style="strokeWidth=1;shadow=0;dashed=0;align=center;html=1;shape=mxgraph.mockup.forms.comboBox;strokeColor=#999999;fillColor=#ddeeff;align=left;fillColor2=#aaddff;mainText=;fontColor=#666666;fontSize=17;spacingLeft=3;" parent="1" vertex="1">
          <mxGeometry x="632" y="249" width="91" height="15" as="geometry" />
        </mxCell>
        <mxCell id="zT-mEKw-d-SdC_awE3MW-38" value="&lt;font style=&quot;font-size: 7px;&quot;&gt;Ingrese una imagen del animal&lt;/font&gt;" style="text;html=1;align=center;verticalAlign=middle;whiteSpace=wrap;rounded=0;" parent="1" vertex="1">
          <mxGeometry x="574" y="160.5" width="84" height="23" as="geometry" />
        </mxCell>
        <mxCell id="zT-mEKw-d-SdC_awE3MW-39" value="&lt;span style=&quot;font-size: 10px;&quot;&gt;Especie:&lt;/span&gt;" style="text;html=1;align=center;verticalAlign=middle;whiteSpace=wrap;rounded=0;" parent="1" vertex="1">
          <mxGeometry x="593.5" y="249" width="28" height="15" as="geometry" />
        </mxCell>
        <mxCell id="zT-mEKw-d-SdC_awE3MW-40" value="&lt;span style=&quot;font-size: 10px;&quot;&gt;Publicar&lt;/span&gt;" style="strokeWidth=1;shadow=0;dashed=0;align=center;html=1;shape=mxgraph.mockup.buttons.button;strokeColor=#666666;fontColor=#ffffff;mainText=;buttonStyle=round;fontSize=17;fontStyle=1;fillColor=#008cff;whiteSpace=wrap;" parent="1" vertex="1">
          <mxGeometry x="610.88" y="407.13" width="90.25" height="21" as="geometry" />
        </mxCell>
        <mxCell id="zT-mEKw-d-SdC_awE3MW-41" value="&lt;font&gt;Tags:&lt;/font&gt;" style="text;html=1;align=center;verticalAlign=middle;whiteSpace=wrap;rounded=0;" parent="1" vertex="1">
          <mxGeometry x="589" y="275" width="34" height="10" as="geometry" />
        </mxCell>
        <mxCell id="zT-mEKw-d-SdC_awE3MW-42" value="&lt;font size=&quot;1&quot;&gt;(Buscador)&lt;/font&gt;" style="rounded=0;whiteSpace=wrap;html=1;" parent="1" vertex="1">
          <mxGeometry x="632" y="271.63" width="91" height="15" as="geometry" />
        </mxCell>
        <mxCell id="zT-mEKw-d-SdC_awE3MW-43" value="&lt;span style=&quot;font-size: 8px;&quot;&gt;Tag&lt;/span&gt;" style="rounded=1;whiteSpace=wrap;html=1;fillColor=#f5f5f5;strokeColor=#666666;fontColor=#333333;" parent="1" vertex="1">
          <mxGeometry x="589" y="295" width="39" height="15" as="geometry" />
        </mxCell>
        <mxCell id="zT-mEKw-d-SdC_awE3MW-44" value="&lt;span style=&quot;font-size: 8px;&quot;&gt;Tag&lt;/span&gt;" style="rounded=1;whiteSpace=wrap;html=1;fillColor=#f5f5f5;strokeColor=#666666;fontColor=#333333;" parent="1" vertex="1">
          <mxGeometry x="636.5" y="296" width="39" height="15" as="geometry" />
        </mxCell>
        <mxCell id="zT-mEKw-d-SdC_awE3MW-45" value="&lt;span style=&quot;font-size: 8px;&quot;&gt;Tag&lt;/span&gt;" style="rounded=1;whiteSpace=wrap;html=1;fillColor=#f5f5f5;strokeColor=#666666;fontColor=#333333;" parent="1" vertex="1">
          <mxGeometry x="684" y="295" width="39" height="15" as="geometry" />
        </mxCell>
        <mxCell id="zT-mEKw-d-SdC_awE3MW-46" value="" style="shape=mxgraph.sysml.x;" parent="1" vertex="1">
          <mxGeometry x="706" y="119" width="18" height="18" as="geometry" />
        </mxCell>
        <mxCell id="zT-mEKw-d-SdC_awE3MW-47" value="" style="rounded=1;whiteSpace=wrap;html=1;" parent="1" vertex="1">
          <mxGeometry x="587.5" y="317" width="135.5" height="31.87" as="geometry" />
        </mxCell>
        <mxCell id="zT-mEKw-d-SdC_awE3MW-48" value="&lt;span style=&quot;font-size: 8px;&quot;&gt;Razgos únicos:&lt;/span&gt;" style="text;html=1;align=center;verticalAlign=middle;whiteSpace=wrap;rounded=0;" parent="1" vertex="1">
          <mxGeometry x="589" y="320" width="66" height="10" as="geometry" />
        </mxCell>
        <mxCell id="zT-mEKw-d-SdC_awE3MW-49" value="" style="verticalLabelPosition=bottom;verticalAlign=top;html=1;shadow=0;dashed=0;strokeWidth=1;shape=mxgraph.ios.iBgMap;strokeColor=#18211b;strokeColor2=#008cff;fillColor2=#96D1FF;rotation=90;" parent="1" vertex="1">
          <mxGeometry x="632.25" y="310" width="47.5" height="140.13" as="geometry" />
        </mxCell>
        <mxCell id="zT-mEKw-d-SdC_awE3MW-50" value="" style="sketch=0;html=1;aspect=fixed;strokeColor=#b85450;shadow=0;fillColor=#FF0000;verticalAlign=top;labelPosition=center;verticalLabelPosition=bottom;shape=mxgraph.gcp2.maps_api;fillStyle=solid;" parent="1" vertex="1">
          <mxGeometry x="649.41" y="370.56" width="11.59" height="19" as="geometry" />
        </mxCell>
        <mxCell id="zT-mEKw-d-SdC_awE3MW-52" value="&lt;div&gt;&lt;br&gt;&lt;/div&gt;" style="rounded=0;whiteSpace=wrap;html=1;" parent="1" vertex="1">
          <mxGeometry x="633" y="145.5" width="91" height="15" as="geometry" />
        </mxCell>
        <mxCell id="zT-mEKw-d-SdC_awE3MW-54" value="&lt;font&gt;Nombre:&lt;/font&gt;" style="text;html=1;align=center;verticalAlign=middle;whiteSpace=wrap;rounded=0;" parent="1" vertex="1">
          <mxGeometry x="589" y="148" width="34" height="10" as="geometry" />
        </mxCell>
        <mxCell id="zT-mEKw-d-SdC_awE3MW-76" value="" style="rounded=1;whiteSpace=wrap;html=1;" parent="1" vertex="1">
          <mxGeometry x="554.5" y="670" width="174" height="190" as="geometry" />
        </mxCell>
        <mxCell id="zT-mEKw-d-SdC_awE3MW-77" value="" style="verticalLabelPosition=bottom;verticalAlign=top;html=1;shadow=0;dashed=0;strokeWidth=1;shape=mxgraph.android.phone2;strokeColor=#c0c0c0;fillColor=#000000;" parent="1" vertex="1">
          <mxGeometry x="541.5" y="582" width="200" height="390" as="geometry" />
        </mxCell>
        <mxCell id="zT-mEKw-d-SdC_awE3MW-83" value="Estás seguro de que quieres denunciar esta ubicación como una zona de maltrato?" style="text;html=1;align=center;verticalAlign=middle;whiteSpace=wrap;rounded=0;" parent="1" vertex="1">
          <mxGeometry x="570" y="681" width="142" height="54" as="geometry" />
        </mxCell>
        <mxCell id="zT-mEKw-d-SdC_awE3MW-84" value="&lt;span style=&quot;font-size: 16px;&quot;&gt;Denuncia de maltrato&lt;/span&gt;" style="text;html=1;align=center;verticalAlign=middle;resizable=0;points=[];autosize=1;strokeColor=none;fillColor=none;" parent="1" vertex="1">
          <mxGeometry x="556.5" y="537" width="170" height="31" as="geometry" />
        </mxCell>
        <mxCell id="zT-mEKw-d-SdC_awE3MW-85" value="&lt;span style=&quot;font-size: 12px;&quot;&gt;Si&lt;/span&gt;" style="strokeWidth=1;shadow=0;dashed=0;align=center;html=1;shape=mxgraph.mockup.buttons.button;strokeColor=#666666;fontColor=#ffffff;mainText=;buttonStyle=round;fontSize=17;fontStyle=1;fillColor=#008cff;whiteSpace=wrap;" parent="1" vertex="1">
          <mxGeometry x="573.5" y="748" width="60" height="25" as="geometry" />
        </mxCell>
        <mxCell id="zT-mEKw-d-SdC_awE3MW-86" value="&lt;span style=&quot;font-size: 12px;&quot;&gt;No&lt;/span&gt;" style="strokeWidth=1;shadow=0;dashed=0;align=center;html=1;shape=mxgraph.mockup.buttons.button;strokeColor=#666666;fontColor=#ffffff;mainText=;buttonStyle=round;fontSize=17;fontStyle=1;fillColor=#008cff;whiteSpace=wrap;" parent="1" vertex="1">
          <mxGeometry x="652" y="748" width="60" height="25" as="geometry" />
        </mxCell>
        <mxCell id="zT-mEKw-d-SdC_awE3MW-87" value="&lt;font style=&quot;font-size: 8px;&quot;&gt;Patitas SOS no se hace responsable&lt;/font&gt;&lt;span style=&quot;font-size: 8px; background-color: transparent; color: light-dark(rgb(0, 0, 0), rgb(255, 255, 255));&quot;&gt;&amp;nbsp;por&amp;nbsp;&lt;/span&gt;&lt;div&gt;&lt;span style=&quot;font-size: 8px; background-color: transparent; color: light-dark(rgb(0, 0, 0), rgb(255, 255, 255));&quot;&gt;denuncias&amp;nbsp;&lt;/span&gt;&lt;span style=&quot;background-color: transparent; color: light-dark(rgb(0, 0, 0), rgb(255, 255, 255)); font-size: 8px;&quot;&gt;falsas o&amp;nbsp;&lt;/span&gt;&lt;span style=&quot;background-color: transparent; color: light-dark(rgb(0, 0, 0), rgb(255, 255, 255)); font-size: 8px;&quot;&gt;cualquier intento de&amp;nbsp;&lt;/span&gt;&lt;/div&gt;&lt;div&gt;&lt;span style=&quot;background-color: transparent; color: light-dark(rgb(0, 0, 0), rgb(255, 255, 255)); font-size: 8px;&quot;&gt;difamación&amp;nbsp;&lt;/span&gt;&lt;span style=&quot;background-color: transparent; color: light-dark(rgb(0, 0, 0), rgb(255, 255, 255)); font-size: 8px;&quot;&gt;hacia otras personas.&amp;nbsp;&lt;/span&gt;&lt;span style=&quot;font-size: 8px; background-color: transparent; color: light-dark(rgb(0, 0, 0), rgb(255, 255, 255));&quot;&gt;La ubicacicón&lt;/span&gt;&lt;/div&gt;&lt;div&gt;&lt;span style=&quot;font-size: 8px; background-color: transparent; color: light-dark(rgb(0, 0, 0), rgb(255, 255, 255));&quot;&gt;&amp;nbsp;se mostrará en forma&amp;nbsp;&lt;/span&gt;&lt;span style=&quot;font-size: 8px; background-color: transparent; color: light-dark(rgb(0, 0, 0), rgb(255, 255, 255));&quot;&gt;de una zona amplia&amp;nbsp;&lt;/span&gt;&lt;/div&gt;&lt;div&gt;&lt;div&gt;&lt;font style=&quot;font-size: 8px;&quot;&gt;de peligro a lo largo del mapa.&lt;/font&gt;&lt;/div&gt;&lt;/div&gt;" style="text;html=1;align=center;verticalAlign=middle;resizable=0;points=[];autosize=1;strokeColor=none;fillColor=none;" parent="1" vertex="1">
          <mxGeometry x="548" y="773" width="187" height="84" as="geometry" />
        </mxCell>
        <mxCell id="zT-mEKw-d-SdC_awE3MW-88" value="" style="shape=flexArrow;endArrow=classic;html=1;rounded=0;endWidth=62.5;endSize=9.7;" parent="1" edge="1">
          <mxGeometry width="50" height="50" relative="1" as="geometry">
            <mxPoint x="3" y="493" as="sourcePoint" />
            <mxPoint x="420" y="738" as="targetPoint" />
            <Array as="points">
              <mxPoint x="13" y="725" />
            </Array>
          </mxGeometry>
        </mxCell>
        <mxCell id="JhvA9zpUzTnI1sjawi1j-1" value="" style="rounded=0;whiteSpace=wrap;html=1;" vertex="1" parent="1">
          <mxGeometry x="813.5" y="112.75" width="152" height="279.5" as="geometry" />
        </mxCell>
        <mxCell id="JhvA9zpUzTnI1sjawi1j-2" value="" style="verticalLabelPosition=bottom;verticalAlign=top;html=1;shadow=0;dashed=0;strokeWidth=1;shape=mxgraph.android.phone2;strokeColor=#c0c0c0;fillColor=#000000;" vertex="1" parent="1">
          <mxGeometry x="789.5" y="56.25" width="200" height="390" as="geometry" />
        </mxCell>
        <mxCell id="JhvA9zpUzTnI1sjawi1j-3" value="&lt;font style=&quot;font-size: 7px;&quot;&gt;Seleccionar archivo&lt;/font&gt;" style="strokeWidth=1;shadow=0;dashed=0;align=center;html=1;shape=mxgraph.mockup.buttons.button;strokeColor=#666666;fontColor=#ffffff;mainText=;buttonStyle=round;fontSize=17;fontStyle=1;fillColor=#008cff;whiteSpace=wrap;" vertex="1" parent="1">
          <mxGeometry x="884" y="161.75" width="73.5" height="17" as="geometry" />
        </mxCell>
        <mxCell id="JhvA9zpUzTnI1sjawi1j-4" value="" style="rounded=1;whiteSpace=wrap;html=1;" vertex="1" parent="1">
          <mxGeometry x="821" y="140.25" width="63" height="60" as="geometry" />
        </mxCell>
        <mxCell id="JhvA9zpUzTnI1sjawi1j-5" value="Foto" style="text;html=1;align=center;verticalAlign=middle;whiteSpace=wrap;rounded=0;" vertex="1" parent="1">
          <mxGeometry x="822.5" y="155.25" width="60" height="30" as="geometry" />
        </mxCell>
        <mxCell id="JhvA9zpUzTnI1sjawi1j-6" value="&lt;font size=&quot;1&quot;&gt;Especie&lt;/font&gt;" style="strokeWidth=1;shadow=0;dashed=0;align=center;html=1;shape=mxgraph.mockup.forms.comboBox;strokeColor=#999999;fillColor=#ddeeff;align=left;fillColor2=#aaddff;mainText=;fontColor=#666666;fontSize=17;spacingLeft=3;" vertex="1" parent="1">
          <mxGeometry x="863.5" y="204.82" width="91" height="15" as="geometry" />
        </mxCell>
        <mxCell id="JhvA9zpUzTnI1sjawi1j-7" value="&lt;font style=&quot;font-size: 7px;&quot;&gt;Ingrese una imagen del animal&lt;/font&gt;" style="text;html=1;align=center;verticalAlign=middle;whiteSpace=wrap;rounded=0;" vertex="1" parent="1">
          <mxGeometry x="810.5" y="113.75" width="84" height="23" as="geometry" />
        </mxCell>
        <mxCell id="JhvA9zpUzTnI1sjawi1j-8" value="&lt;span style=&quot;font-size: 10px;&quot;&gt;Especie:&lt;/span&gt;" style="text;html=1;align=center;verticalAlign=middle;whiteSpace=wrap;rounded=0;" vertex="1" parent="1">
          <mxGeometry x="824.5" y="205.88" width="28" height="15" as="geometry" />
        </mxCell>
        <mxCell id="JhvA9zpUzTnI1sjawi1j-9" value="&lt;span style=&quot;font-size: 10px;&quot;&gt;Publicar&lt;/span&gt;" style="strokeWidth=1;shadow=0;dashed=0;align=center;html=1;shape=mxgraph.mockup.buttons.button;strokeColor=#666666;fontColor=#ffffff;mainText=;buttonStyle=round;fontSize=17;fontStyle=1;fillColor=#008cff;whiteSpace=wrap;" vertex="1" parent="1">
          <mxGeometry x="844.38" y="366.25" width="90.25" height="21" as="geometry" />
        </mxCell>
        <mxCell id="JhvA9zpUzTnI1sjawi1j-10" value="&lt;font&gt;Tags:&lt;/font&gt;" style="text;html=1;align=center;verticalAlign=middle;whiteSpace=wrap;rounded=0;" vertex="1" parent="1">
          <mxGeometry x="818" y="230.19" width="34" height="10" as="geometry" />
        </mxCell>
        <mxCell id="JhvA9zpUzTnI1sjawi1j-11" value="&lt;font size=&quot;1&quot;&gt;(Buscador)&lt;/font&gt;" style="rounded=0;whiteSpace=wrap;html=1;" vertex="1" parent="1">
          <mxGeometry x="863" y="227.69" width="91" height="15" as="geometry" />
        </mxCell>
        <mxCell id="JhvA9zpUzTnI1sjawi1j-12" value="&lt;span style=&quot;font-size: 8px;&quot;&gt;Tag&lt;/span&gt;" style="rounded=1;whiteSpace=wrap;html=1;fillColor=#f5f5f5;strokeColor=#666666;fontColor=#333333;" vertex="1" parent="1">
          <mxGeometry x="821" y="253.19" width="39" height="15" as="geometry" />
        </mxCell>
        <mxCell id="JhvA9zpUzTnI1sjawi1j-13" value="&lt;span style=&quot;font-size: 8px;&quot;&gt;Tag&lt;/span&gt;" style="rounded=1;whiteSpace=wrap;html=1;fillColor=#f5f5f5;strokeColor=#666666;fontColor=#333333;" vertex="1" parent="1">
          <mxGeometry x="870" y="253.19" width="39" height="15" as="geometry" />
        </mxCell>
        <mxCell id="JhvA9zpUzTnI1sjawi1j-14" value="&lt;span style=&quot;font-size: 8px;&quot;&gt;Tag&lt;/span&gt;" style="rounded=1;whiteSpace=wrap;html=1;fillColor=#f5f5f5;strokeColor=#666666;fontColor=#333333;" vertex="1" parent="1">
          <mxGeometry x="915.5" y="253.25" width="39" height="15" as="geometry" />
        </mxCell>
        <mxCell id="JhvA9zpUzTnI1sjawi1j-15" value="" style="shape=mxgraph.sysml.x;" vertex="1" parent="1">
          <mxGeometry x="939.5" y="116.25" width="18" height="18" as="geometry" />
        </mxCell>
        <mxCell id="JhvA9zpUzTnI1sjawi1j-16" value="" style="rounded=1;whiteSpace=wrap;html=1;" vertex="1" parent="1">
          <mxGeometry x="818.01" y="275.38" width="143" height="31.87" as="geometry" />
        </mxCell>
        <mxCell id="JhvA9zpUzTnI1sjawi1j-17" value="&lt;span style=&quot;font-size: 8px;&quot;&gt;Detalles de la emergencia&lt;/span&gt;" style="text;html=1;align=center;verticalAlign=middle;whiteSpace=wrap;rounded=0;" vertex="1" parent="1">
          <mxGeometry x="818.01" y="275.38" width="99.99" height="10" as="geometry" />
        </mxCell>
        <mxCell id="JhvA9zpUzTnI1sjawi1j-18" value="" style="verticalLabelPosition=bottom;verticalAlign=top;html=1;shadow=0;dashed=0;strokeWidth=1;shape=mxgraph.ios.iBgMap;strokeColor=#18211b;strokeColor2=#008cff;fillColor2=#96D1FF;rotation=90;" vertex="1" parent="1">
          <mxGeometry x="865.75" y="268.25" width="47.5" height="140.13" as="geometry" />
        </mxCell>
        <mxCell id="JhvA9zpUzTnI1sjawi1j-19" value="" style="sketch=0;html=1;aspect=fixed;strokeColor=#b85450;shadow=0;fillColor=#FF0000;verticalAlign=top;labelPosition=center;verticalLabelPosition=bottom;shape=mxgraph.gcp2.maps_api;fillStyle=solid;" vertex="1" parent="1">
          <mxGeometry x="882.5" y="324.25" width="11.59" height="19" as="geometry" />
        </mxCell>
      </root>
    </mxGraphModel>
  </diagram>
</mxfile>
